<?xml version="1.0" standalone="no"?>
<!DOCTYPE svg PUBLIC "-//W3C//DTD SVG 20010904//EN"
 "http://www.w3.org/TR/2001/REC-SVG-20010904/DTD/svg10.dtd">
<svg version="1.0" xmlns="http://www.w3.org/2000/svg"
 width="500.000000pt" height="500.000000pt" viewBox="0 0 500.000000 500.000000"
 preserveAspectRatio="xMidYMid meet">
<metadata>
Created by potrace 1.14, written by Peter Selinger 2001-2017
</metadata>
<g transform="translate(0.000000,500.000000) scale(0.100000,-0.100000)"
fill="#000000" stroke="none">
<path d="M2309 4796 c-2 -2 -38 -6 -79 -10 -293 -23 -464 -130 -343 -213 25
-18 82 -44 108 -50 6 -1 28 -7 50 -12 104 -25 204 -35 370 -35 273 0 485 43
576 116 40 33 29 79 -28 116 -37 25 -180 65 -273 77 -59 7 -375 16 -381 11z
m-12 -121 c39 -19 43 -27 10 -21 -13 2 -30 0 -38 -5 -17 -11 -16 -11 169 -18
17 0 32 -5 32 -9 0 -5 -62 -7 -137 -6 -182 3 -293 16 -293 34 0 10 29 17 105
25 33 4 61 8 62 9 10 9 64 3 90 -9z"/>
<path d="M2350 4239 c-96 -12 -132 -20 -215 -48 -351 -120 -601 -448 -729
-956 -29 -114 -63 -313 -72 -424 -4 -42 -8 -83 -10 -91 -1 -8 -3 -47 -3 -87
l-1 -72 -103 36 c-89 31 -111 34 -173 31 -132 -9 -208 -80 -197 -183 l4 -43
-48 -2 c-26 0 -61 -1 -76 0 -19 0 -38 -10 -58 -29 -29 -29 -30 -33 -29 -118 0
-48 0 -236 -1 -417 l-3 -329 28 -23 c15 -13 39 -24 54 -25 15 0 34 -2 42 -3 8
-2 50 -7 92 -10 43 -4 90 -9 105 -11 16 -2 62 -6 103 -9 41 -4 98 -9 125 -11
28 -3 69 -5 93 -6 24 -1 44 -5 46 -8 2 -3 7 -51 10 -106 4 -55 9 -113 11 -130
2 -16 7 -57 10 -90 39 -384 90 -602 169 -708 90 -123 319 -107 528 36 129 89
163 102 258 101 104 -1 158 -23 273 -112 113 -88 153 -105 235 -100 108 6 189
51 323 179 71 68 132 99 204 106 74 6 130 -11 316 -101 164 -78 239 -104 321
-111 161 -12 258 74 236 212 -15 95 -80 195 -207 315 -282 269 -409 574 -446
1078 -4 47 -8 96 -10 109 -3 14 -7 122 -10 240 -9 365 -16 569 -19 588 -2 10
-7 56 -11 103 -4 47 -9 94 -11 105 -2 10 -6 37 -9 60 -25 173 -138 454 -216
537 -42 45 -37 46 73 18 83 -21 126 -19 146 7 82 109 -262 353 -638 453 -168
45 -379 65 -510 49z"/>
</g>
</svg>
